<mxfile host="app.diagrams.net" agent="Mozilla/5.0 (Windows NT 10.0; Win64; x64) AppleWebKit/537.36 (KHTML, like Gecko) Chrome/135.0.0.0 Safari/537.36" version="26.2.14">
  <diagram name="Page-1" id="52a04d89-c75d-2922-d76d-85b35f80e030">
    <mxGraphModel dx="1042" dy="534" grid="1" gridSize="10" guides="1" tooltips="1" connect="1" arrows="1" fold="1" page="1" pageScale="1" pageWidth="1100" pageHeight="850" background="none" math="0" shadow="0">
      <root>
        <mxCell id="0" />
        <mxCell id="1" parent="0" />
        <mxCell id="OrD4vZGPx3QnHi8R1rku-16" style="edgeStyle=orthogonalEdgeStyle;rounded=0;orthogonalLoop=1;jettySize=auto;html=1;entryX=0.5;entryY=0;entryDx=0;entryDy=0;" edge="1" parent="1" source="21ea969265ad0168-30" target="OrD4vZGPx3QnHi8R1rku-1">
          <mxGeometry relative="1" as="geometry">
            <Array as="points">
              <mxPoint x="880" y="60" />
              <mxPoint x="560" y="60" />
            </Array>
          </mxGeometry>
        </mxCell>
        <mxCell id="OrD4vZGPx3QnHi8R1rku-17" value="Memberikan Data Simulasi Yang Tersiman" style="edgeLabel;html=1;align=center;verticalAlign=middle;resizable=0;points=[];" vertex="1" connectable="0" parent="OrD4vZGPx3QnHi8R1rku-16">
          <mxGeometry x="0.3171" y="-1" relative="1" as="geometry">
            <mxPoint x="40" as="offset" />
          </mxGeometry>
        </mxCell>
        <mxCell id="21ea969265ad0168-30" value="Database" style="html=1;rounded=0;shadow=0;comic=0;labelBackgroundColor=none;strokeWidth=2;fontFamily=Verdana;fontSize=12;align=center;shape=mxgraph.ios7ui.horLines;" parent="1" vertex="1">
          <mxGeometry x="810" y="130" width="135" height="50" as="geometry" />
        </mxCell>
        <mxCell id="OrD4vZGPx3QnHi8R1rku-6" style="edgeStyle=orthogonalEdgeStyle;rounded=0;orthogonalLoop=1;jettySize=auto;html=1;" edge="1" parent="1" source="OrD4vZGPx3QnHi8R1rku-1" target="OrD4vZGPx3QnHi8R1rku-3">
          <mxGeometry relative="1" as="geometry" />
        </mxCell>
        <mxCell id="OrD4vZGPx3QnHi8R1rku-7" value="Mengirm Request" style="edgeLabel;html=1;align=center;verticalAlign=middle;resizable=0;points=[];" vertex="1" connectable="0" parent="OrD4vZGPx3QnHi8R1rku-6">
          <mxGeometry x="-0.6" y="-3" relative="1" as="geometry">
            <mxPoint as="offset" />
          </mxGeometry>
        </mxCell>
        <mxCell id="OrD4vZGPx3QnHi8R1rku-10" style="edgeStyle=orthogonalEdgeStyle;rounded=0;orthogonalLoop=1;jettySize=auto;html=1;entryX=0.5;entryY=1;entryDx=0;entryDy=0;exitX=0.102;exitY=0.821;exitDx=0;exitDy=0;exitPerimeter=0;" edge="1" parent="1" source="OrD4vZGPx3QnHi8R1rku-1" target="OrD4vZGPx3QnHi8R1rku-2">
          <mxGeometry relative="1" as="geometry">
            <mxPoint x="560" y="210" as="sourcePoint" />
            <mxPoint x="130" y="190" as="targetPoint" />
            <Array as="points">
              <mxPoint x="496" y="210" />
              <mxPoint x="130" y="210" />
            </Array>
          </mxGeometry>
        </mxCell>
        <mxCell id="OrD4vZGPx3QnHi8R1rku-11" value="Text" style="edgeLabel;html=1;align=center;verticalAlign=middle;resizable=0;points=[];" vertex="1" connectable="0" parent="OrD4vZGPx3QnHi8R1rku-10">
          <mxGeometry x="-0.0141" y="-5" relative="1" as="geometry">
            <mxPoint x="1" as="offset" />
          </mxGeometry>
        </mxCell>
        <mxCell id="OrD4vZGPx3QnHi8R1rku-13" value="Menampilkan Hasil Simulasi" style="edgeLabel;html=1;align=center;verticalAlign=middle;resizable=0;points=[];" vertex="1" connectable="0" parent="OrD4vZGPx3QnHi8R1rku-10">
          <mxGeometry x="-0.0128" y="-5" relative="1" as="geometry">
            <mxPoint as="offset" />
          </mxGeometry>
        </mxCell>
        <mxCell id="OrD4vZGPx3QnHi8R1rku-18" style="edgeStyle=orthogonalEdgeStyle;rounded=0;orthogonalLoop=1;jettySize=auto;html=1;entryX=1;entryY=0.5;entryDx=0;entryDy=0;" edge="1" parent="1" source="OrD4vZGPx3QnHi8R1rku-1" target="OrD4vZGPx3QnHi8R1rku-2">
          <mxGeometry relative="1" as="geometry">
            <Array as="points">
              <mxPoint x="410" y="155" />
              <mxPoint x="410" y="155" />
            </Array>
          </mxGeometry>
        </mxCell>
        <mxCell id="OrD4vZGPx3QnHi8R1rku-19" value="Menampilkan Riwayat Simulasi" style="edgeLabel;html=1;align=center;verticalAlign=middle;resizable=0;points=[];" vertex="1" connectable="0" parent="OrD4vZGPx3QnHi8R1rku-18">
          <mxGeometry x="0.0488" relative="1" as="geometry">
            <mxPoint as="offset" />
          </mxGeometry>
        </mxCell>
        <mxCell id="OrD4vZGPx3QnHi8R1rku-1" value="&lt;b&gt;&lt;font style=&quot;font-size: 21px;&quot;&gt;AI Simulator Wawancara&lt;/font&gt;&lt;/b&gt;" style="ellipse;whiteSpace=wrap;html=1;aspect=fixed;" vertex="1" parent="1">
          <mxGeometry x="480" y="80" width="160" height="160" as="geometry" />
        </mxCell>
        <mxCell id="OrD4vZGPx3QnHi8R1rku-4" style="edgeStyle=orthogonalEdgeStyle;rounded=0;orthogonalLoop=1;jettySize=auto;html=1;entryX=0;entryY=0;entryDx=0;entryDy=0;" edge="1" parent="1" target="OrD4vZGPx3QnHi8R1rku-1">
          <mxGeometry relative="1" as="geometry">
            <mxPoint x="130" y="140" as="sourcePoint" />
            <mxPoint x="590.72" y="103.75999999999999" as="targetPoint" />
            <Array as="points">
              <mxPoint x="130" y="103" />
              <mxPoint x="450" y="103" />
              <mxPoint x="503" y="104" />
            </Array>
          </mxGeometry>
        </mxCell>
        <mxCell id="OrD4vZGPx3QnHi8R1rku-5" value="Mulai Simulasi Wawancara" style="edgeLabel;html=1;align=center;verticalAlign=middle;resizable=0;points=[];" vertex="1" connectable="0" parent="OrD4vZGPx3QnHi8R1rku-4">
          <mxGeometry x="-0.1109" y="2" relative="1" as="geometry">
            <mxPoint x="1" as="offset" />
          </mxGeometry>
        </mxCell>
        <mxCell id="OrD4vZGPx3QnHi8R1rku-2" value="User" style="ellipse;whiteSpace=wrap;html=1;" vertex="1" parent="1">
          <mxGeometry x="70" y="115" width="120" height="80" as="geometry" />
        </mxCell>
        <mxCell id="OrD4vZGPx3QnHi8R1rku-8" style="edgeStyle=orthogonalEdgeStyle;rounded=0;orthogonalLoop=1;jettySize=auto;html=1;entryX=1;entryY=1;entryDx=0;entryDy=0;" edge="1" parent="1" source="OrD4vZGPx3QnHi8R1rku-3" target="OrD4vZGPx3QnHi8R1rku-1">
          <mxGeometry relative="1" as="geometry">
            <Array as="points">
              <mxPoint x="680" y="400" />
              <mxPoint x="680" y="217" />
            </Array>
          </mxGeometry>
        </mxCell>
        <mxCell id="OrD4vZGPx3QnHi8R1rku-9" value="Memberikan Response" style="edgeLabel;html=1;align=center;verticalAlign=middle;resizable=0;points=[];" vertex="1" connectable="0" parent="OrD4vZGPx3QnHi8R1rku-8">
          <mxGeometry x="-0.1091" y="-2" relative="1" as="geometry">
            <mxPoint as="offset" />
          </mxGeometry>
        </mxCell>
        <mxCell id="OrD4vZGPx3QnHi8R1rku-3" value="Open AI API" style="ellipse;whiteSpace=wrap;html=1;" vertex="1" parent="1">
          <mxGeometry x="500" y="360" width="120" height="80" as="geometry" />
        </mxCell>
        <mxCell id="OrD4vZGPx3QnHi8R1rku-14" style="edgeStyle=orthogonalEdgeStyle;rounded=0;orthogonalLoop=1;jettySize=auto;html=1;entryX=0;entryY=0.6;entryDx=0;entryDy=0;entryPerimeter=0;" edge="1" parent="1" source="OrD4vZGPx3QnHi8R1rku-1" target="21ea969265ad0168-30">
          <mxGeometry relative="1" as="geometry" />
        </mxCell>
        <mxCell id="OrD4vZGPx3QnHi8R1rku-15" value="Menyimpan Data Simulasi" style="edgeLabel;html=1;align=center;verticalAlign=middle;resizable=0;points=[];" vertex="1" connectable="0" parent="OrD4vZGPx3QnHi8R1rku-14">
          <mxGeometry x="-0.5125" y="1" relative="1" as="geometry">
            <mxPoint x="39" y="1" as="offset" />
          </mxGeometry>
        </mxCell>
      </root>
    </mxGraphModel>
  </diagram>
</mxfile>
